<svg xmlns="http://www.w3.org/2000/svg" viewBox="0 0 230.13 125.95"><defs><style>.cls-1{fill:#f4bd00}</style></defs><title>eye views</title><g id="Слой_2" data-name="Слой 2"><g id="Слой_1-2" data-name="Слой 1"><path class="cls-1" d="M0 62.56C27.66 22.31 65.73 0 114.9 0s87.27 22.23 115.23 63c-27.88 40.35-65.54 62.24-114.67 63C69 126.62 22.24 100.88 0 62.56zm115.49 34.3a34.1 34.1 0 0 0 34.25-33.66c.26-18.55-15.49-34.42-34.19-34.44S81.11 44.52 81.34 63.12a34.09 34.09 0 0 0 34.15 33.74zm-27.63 14.45C53.15 90.4 49.62 39.13 86.94 15 64 17 26.38 41.95 14.16 63.32c18.67 25.05 43.18 41.2 73.7 47.99zm128-48.22c-18.16-26.2-49.56-44.51-72.14-47.8 17.44 11.36 26.92 27.12 27 47.58s-9.63 35.89-26 47.67c29.6-7.14 53.08-23.1 71.17-47.45z"/><path class="cls-1" d="M103.43 64.7a11.05 11.05 0 0 1-10.92-11.26 10.88 10.88 0 0 1 11.21-10.92 11.09 11.09 0 1 1-.3 22.18z"/></g></g></svg>