<svg xmlns="http://www.w3.org/2000/svg" viewBox="0 0 6.89 10.83"><defs><style>.cls-1{fill:#fff;}</style></defs><title>soc icon 1</title><g id="Слой_2" data-name="Слой 2"><g id="Слой_3" data-name="Слой 3"><path class="cls-1" d="M6.82,0,6.11.77H5.35c.12.12.24.2.33.31a2,2,0,0,1,.48,1.24,2,2,0,0,1-.27,1.25,3.82,3.82,0,0,1-.65.69,3.64,3.64,0,0,0-.42.43.58.58,0,0,0,0,.85,5.18,5.18,0,0,0,.66.61A4.82,4.82,0,0,1,6.57,7.21a2,2,0,0,1,.3,1.37,2.37,2.37,0,0,1-1.68,2,4.67,4.67,0,0,1-1.89.29,5.17,5.17,0,0,1-1.75-.28A2.67,2.67,0,0,1,.36,9.75,1.69,1.69,0,0,1,0,8.41,2.15,2.15,0,0,1,1.66,6.63a5.88,5.88,0,0,1,1.66-.26H3.5l.15,0a1.2,1.2,0,0,1-.27-1.38c-.07-.08-.15-.06-.21-.06a2.8,2.8,0,0,1-1.58-.51A2,2,0,0,1,.77,3,2.53,2.53,0,0,1,1,1.36,2.41,2.41,0,0,1,2.41.22,3.61,3.61,0,0,1,3.55,0L6.7,0ZM3.36,10.23A3.26,3.26,0,0,0,4.86,10,1.59,1.59,0,0,0,5.1,7.21a2.42,2.42,0,0,0-1.48-.48,2.71,2.71,0,0,0-1.77.54,1.49,1.49,0,0,0-.09,2.43A2.11,2.11,0,0,0,3.36,10.23ZM1.86,2.11A2.86,2.86,0,0,0,2,3,2.05,2.05,0,0,0,3.16,4.29a1.32,1.32,0,0,0,1.14,0,1.21,1.21,0,0,0,.61-1,2.73,2.73,0,0,0-.3-1.66A1.75,1.75,0,0,0,3.32.56a1.05,1.05,0,0,0-.94.26A1.91,1.91,0,0,0,1.86,2.11Z"/></g></g></svg>