<svg xmlns="http://www.w3.org/2000/svg" viewBox="0 0 129.36 41.28"><defs><style>.cls-1{fill:#ebb931}</style></defs><title>Ресурс 1</title><g id="Слой_2" data-name="Слой 2"><path class="cls-1" d="M11.44 39.46l-1.82-4.18-1.69 5.87h.81l1-3.66 1.67 3.78 1.67-3.78 1 3.66H15l-1.68-5.87zm12-3.76a3 3 0 0 0-1.56-.43 2.92 2.92 0 0 0-1.56.41 3 3 0 0 0-1.49 2.6 2.94 2.94 0 0 0 .39 1.46 3 3 0 0 0 1.08 1.11 3 3 0 0 0 1.58.42 3 3 0 0 0 1.56-.42 3 3 0 0 0 1.08-1.11 2.92 2.92 0 0 0 .48-1.45 3 3 0 0 0-.39-1.47 3 3 0 0 0-1.13-1.11zm.46 3.46a2.24 2.24 0 0 1-.45.72 2 2 0 0 1-.7.48 2.2 2.2 0 0 1-.88.18 2.06 2.06 0 0 1-1.58-.65 2.26 2.26 0 0 1-.61-1.6 2.39 2.39 0 0 1 .32-1.16 2.1 2.1 0 0 1 .79-.82 2.24 2.24 0 0 1 2.22 0 2.1 2.1 0 0 1 .79.82 2.5 2.5 0 0 1 .13 2zm4.88-3h1.43v5h.81v-5h1.43v-.76h-3.63zm7.64 5h.81V35.4h-.81zm9.45-5.45a3 3 0 0 0-1.56-.43 2.92 2.92 0 0 0-1.56.41 3 3 0 0 0-1.49 2.6 2.94 2.94 0 0 0 .39 1.46 3 3 0 0 0 1.08 1.11 3 3 0 0 0 1.58.42 3 3 0 0 0 1.56-.42A3 3 0 0 0 47 39.75a2.91 2.91 0 0 0 .39-1.46 3 3 0 0 0-.39-1.47 3 3 0 0 0-1.09-1.11zm.46 3.46a2.24 2.24 0 0 1-.45.72 2 2 0 0 1-.7.48 2.2 2.2 0 0 1-.88.18 2.06 2.06 0 0 1-1.58-.65 2.26 2.26 0 0 1-.61-1.6 2.39 2.39 0 0 1 .29-1.16 2.1 2.1 0 0 1 .79-.82 2.23 2.23 0 0 1 2.22 0 2.1 2.1 0 0 1 .79.82 2.5 2.5 0 0 1 .12 2zm8.91.27l-3.84-4.16v5.87h.73V37.1L56 41.28V35.4h-.7zm26.53-3.64a3.3 3.3 0 0 0-1.69-.4h-1.72v5.75h1.7a2.76 2.76 0 0 0 2.42-.91 3.46 3.46 0 0 0 .64-2 3.1 3.1 0 0 0-.33-1.43 2.56 2.56 0 0 0-1.02-1.01zm.1 3.93a1.54 1.54 0 0 1-.83.59 4.19 4.19 0 0 1-1 .11h-.89v-4.31h.9a2.37 2.37 0 0 1 1.63.49 2.16 2.16 0 0 1 .55 1.67 2.3 2.3 0 0 1-.36 1.45zm5.28 1.42h3.48v-.72H88v-2h2.67v-.72H88v-1.59h2.67v-.72h-3.52zm10.62-2.72a5.51 5.51 0 0 0-.83-.51q-.4-.2-.65-.35a1.68 1.68 0 0 1-.42-.35.68.68 0 0 1-.16-.47.77.77 0 0 1 .25-.52.94.94 0 0 1 .69-.23 2.15 2.15 0 0 1 1 .28l.35-.68a2.64 2.64 0 0 0-.55-.21 3.09 3.09 0 0 0-.86-.11 1.79 1.79 0 0 0-1.3.44 1.51 1.51 0 0 0-.48 1.07 1.21 1.21 0 0 0 .31 1 3.88 3.88 0 0 0 .9.65 7.37 7.37 0 0 1 .84.44 1 1 0 0 1 .55.86.83.83 0 0 1-.27.62 1 1 0 0 1-.7.23A2.45 2.45 0 0 1 95 40l-.35.69a3.33 3.33 0 0 0 1.8.54 2 2 0 0 0 1.31-.42 1.47 1.47 0 0 0 .54-1.14 1.63 1.63 0 0 0-.15-.78 1.55 1.55 0 0 0-.38-.45zm4.55 2.72h.81V35.4h-.81zm7.58-2.31h2.29a1.81 1.81 0 0 1-1 1.49 2.15 2.15 0 0 1-1 .21 2.06 2.06 0 0 1-1.57-.65 2.25 2.25 0 0 1-.61-1.6 2.39 2.39 0 0 1 .29-1.16 2.1 2.1 0 0 1 .79-.82 2.15 2.15 0 0 1 1.11-.3 2.09 2.09 0 0 1 1.58.67l.6-.48a2.94 2.94 0 0 0-2.18-.92 2.9 2.9 0 0 0-1.56.42 3 3 0 0 0-1.09 1.12 3 3 0 0 0-.39 1.47 2.91 2.91 0 0 0 .39 1.46 3 3 0 0 0 1.08 1.1 3 3 0 0 0 1.57.42 2.57 2.57 0 0 0 1.68-.52 2.82 2.82 0 0 0 .89-1.22 4.7 4.7 0 0 0 .29-1.42h-2.66zm11.08.59l-3.88-4.15v5.87h.73V37.1l3.85 4.18V35.4H121zM8.09 18.53l3.28 13.41h8.36l-5.09-17.16L19.28.66h-7.59l-3.6 12.15V.66H0v23.7l8.09 7.58zM29.21.66h-8.09v31.28h8.09zm14.54 14.08L39.22.66h-6.77v31.28h6.76V17.72l4.21 14.22h7.09V.66h-6.76zm18.1 4.06h5.05v-6h-5.05V6.92h5.4V.66H53.76v31.28h14v-6.26h-5.91zm26.08 5.14q0-4.6-1.4-6.67T79.72 12a6.12 6.12 0 0 1-2.29-1.91A5.17 5.17 0 0 1 77 7.71a3.49 3.49 0 0 1 .37-1.82 1.22 1.22 0 0 1 1.1-.6 1.06 1.06 0 0 1 1 .44 4.57 4.57 0 0 1 .29 2.07v2.32h7.51V8.89a13.73 13.73 0 0 0-.72-5.29A5.64 5.64 0 0 0 83.6 1a12.76 12.76 0 0 0-5.37-1 11.71 11.71 0 0 0-4.92.94 6.15 6.15 0 0 0-2.95 2.6 11.42 11.42 0 0 0-.91 5.26 11.11 11.11 0 0 0 .64 4.1 6.83 6.83 0 0 0 1.62 2.51 37.21 37.21 0 0 0 4 2.92 23.93 23.93 0 0 1 3.79 2.84q.75.85.75 3.61a3.66 3.66 0 0 1-.39 1.89 1.32 1.32 0 0 1-1.2.64 1.22 1.22 0 0 1-1.12-.5 5 5 0 0 1-.32-2.26v-3.82h-7.53v2a16.23 16.23 0 0 0 .71 5.43 6 6 0 0 0 3 3.15A11.55 11.55 0 0 0 79 32.6a11.84 11.84 0 0 0 5.19-1.07 6.11 6.11 0 0 0 3-2.66 11.75 11.75 0 0 0 .74-4.93zm17.18-9.16L109.75.66h-7.59l-3.6 12.15V.66h-8.09v31.28h8.09V18.53l3.28 13.41h8.36zm24-7.92a7.52 7.52 0 0 0-4.64-6A11.66 11.66 0 0 0 120 0a11.38 11.38 0 0 0-4.61.87 7.47 7.47 0 0 0-4.53 6.08q-.22 2-.22 6.68V19a66.44 66.44 0 0 0 .23 6.76 7.51 7.51 0 0 0 4.64 6l.3.12h5.63l7.79-7.43s.12-3.15.12-5.49v-5.34a66.44 66.44 0 0 0-.22-6.76zm-7.86 16.21a15.56 15.56 0 0 1-.23 3.5 1 1 0 0 1-1.06.73 1 1 0 0 1-1-.64 14.44 14.44 0 0 1-.22-3.36V8.7a7 7 0 0 1 .34-2.91 1.1 1.1 0 0 1 1-.49 1 1 0 0 1 1 .61 9.75 9.75 0 0 1 .24 2.79z" id="Слой_1-2" data-name="Слой 1"/></g></svg>