<svg xmlns="http://www.w3.org/2000/svg" viewBox="0 0 10.83 10.83"><defs><style>.cls-1{fill:#f4bd00;}</style></defs><title>soc icon 4 hover</title><g id="Слой_2" data-name="Слой 2"><g id="Слой_3" data-name="Слой 3"><path class="cls-1" d="M10.83,10.83H8.76A8.68,8.68,0,0,0,7.58,6.45a8.7,8.7,0,0,0-3.2-3.21A8.65,8.65,0,0,0,0,2.07V0h0a10.23,10.23,0,0,1,1,.05A10.66,10.66,0,0,1,3.13.46,10.76,10.76,0,0,1,6,1.84,10.84,10.84,0,0,1,7.68,3.21,10.86,10.86,0,0,1,9.68,6a10.72,10.72,0,0,1,.89,2.47,10.7,10.7,0,0,1,.21,1.27q.05.53.06,1.06A.1.1,0,0,1,10.83,10.83Z"/><path class="cls-1" d="M7.15,10.83H5.07A5,5,0,0,0,3.59,7.25,5,5,0,0,0,0,5.75s0-2,0-2.07a7,7,0,0,1,2.88.61A7.11,7.11,0,0,1,6.14,7.17,7,7,0,0,1,7.15,10.83Z"/><path class="cls-1" d="M1.47,10.82A1.43,1.43,0,1,1,2.88,9.34,1.44,1.44,0,0,1,1.47,10.82Z"/></g></g></svg>