<svg xmlns="http://www.w3.org/2000/svg" viewBox="0 0 38.4 39.6"><defs><style>.cls-1{fill-rule:evenodd}.cls-2{fill:#f4bd00}</style></defs><title>service icon 4 hover</title><g id="Слой_2" data-name="Слой 2"><g id="Слой_3" data-name="Слой 3"><path class="cls-1" d="M16.32 39.6l-8-13.68L.24 39.6zM0 0h16.08L8 8.16zm25.92 7.92H38.4l-6.24 6.24zm5.76 6.71L17 39.6 2.4 14.63 17 0z"/><path class="cls-2" d="M9 23.14a8.83 8.83 0 0 1 .92-12.42A8.6 8.6 0 0 1 16 8.57a8.55 8.55 0 0 1 6.41 3.06A8.83 8.83 0 1 1 9 23.14zm9.84-4.72a2.54 2.54 0 1 0 3.53.24 2.55 2.55 0 0 0-3.52-.24zm-3.28-7.76a2.17 2.17 0 0 0-.47-.43 2.45 2.45 0 0 0-.56-.29c-.14 0-.27-.09-.41-.12a2.65 2.65 0 0 0-.8 0 2.13 2.13 0 0 0-.76.22 3.52 3.52 0 0 0-.51.3 2.79 2.79 0 0 0-.5.56 2.2 2.2 0 0 0-.35.73 2.63 2.63 0 0 0-.06 1.19 3 3 0 0 0 .21.64 2.55 2.55 0 0 0 .49.68 2.33 2.33 0 0 0 .72.51 2.06 2.06 0 0 0 .55.18 2.58 2.58 0 0 0 1.11 0 2.09 2.09 0 0 0 .76-.33 3.67 3.67 0 0 0 .48-.39 2.46 2.46 0 0 0 .58-1 2.84 2.84 0 0 0 .13-.89 1.2 1.2 0 0 0 0-.29 5.35 5.35 0 0 0-.16-.57 2.39 2.39 0 0 0-.43-.7zm6.07 5.11a2.53 2.53 0 1 0-3.56-.25 2.54 2.54 0 0 0 3.57.25zm-9.16 8.67a2.3 2.3 0 0 0 .6.54 2.08 2.08 0 0 0 .54.26c.13 0 .26.09.39.11a2.48 2.48 0 0 0 1.18-.08 2 2 0 0 0 .51-.23 3.88 3.88 0 0 0 .4-.27 3.46 3.46 0 0 0 .34-.37 1.38 1.38 0 0 0 .2-.27c.08-.17.15-.34.22-.51A1.87 1.87 0 0 0 17 23a2.18 2.18 0 0 0 0-.37 4.33 4.33 0 0 0-.12-.56 2.23 2.23 0 0 0-.16-.36 2.74 2.74 0 0 0-.44-.6 3.29 3.29 0 0 0-.69-.5l-.47-.15a2.13 2.13 0 0 0-.78-.08 2.08 2.08 0 0 0-.9.23h-.09a1.76 1.76 0 0 0-.5.32 2.56 2.56 0 0 0-.53.65 2.35 2.35 0 0 0-.31.84 2.82 2.82 0 0 0 0 .78 2.92 2.92 0 0 0 .13.49l.05.15a1.24 1.24 0 0 0 .09.22c.03.14.14.29.21.38zm-.32-8.19a2.53 2.53 0 1 0-.34 3.59 2.53 2.53 0 0 0 .35-3.59zm4.22.57a.63.63 0 0 0-.26-.21 1.11 1.11 0 0 0-.41-.09.88.88 0 0 0-.55.18.9.9 0 0 0-.15 1.16.84.84 0 0 0 .54.38 1 1 0 0 0 .68-.13.72.72 0 0 0 .34-.5.87.87 0 0 0-.17-.79zm-2.27 1.24a.54.54 0 0 0-.07.76.53.53 0 0 0 .77.06.55.55 0 0 0 .07-.74.57.57 0 0 0-.77-.08zm.53-1.12a.54.54 0 1 0-.69-.82.55.55 0 0 0-.05.75.54.54 0 0 0 .73.06zm1.37 1.6a.51.51 0 0 0-.07.75.52.52 0 0 0 .77 0 .56.56 0 0 0 .06-.75.55.55 0 0 0-.76 0zm.45-2.36a.58.58 0 0 0 .08-.75.56.56 0 0 0-.77-.08.54.54 0 0 0-.07.76.56.56 0 0 0 .77.07zm1.34.74a.6.6 0 0 0-.76-.08.57.57 0 0 0-.06.76.54.54 0 0 0 .83-.69z"/><path class="cls-2" d="M13 26.62v-.08a.15.15 0 0 1 .1 0h.1c.23.06.46.13.69.17s.55.08.82.12a6.51 6.51 0 0 0 1.21.05l.88-.05a6.22 6.22 0 0 0 .87-.14l.58-.13h.11l.27-.08h.06c.16-.06.33-.11.49-.18l.73-.33a.21.21 0 0 1 .3.05l.21.25 2 2.29.06.08a.12.12 0 0 1-.09.2l-.56.1-.54.08a8.33 8.33 0 0 1-.88.08A9.76 9.76 0 0 1 19 29c-.35 0-.71-.08-1.06-.14s-.59-.11-.88-.18-.29-.09-.43-.13l-.42-.13-.17-.06-.53-.2h-.09L15.2 28l-.55-.29h-.05l-.6-.4-.18-.12-.66-.48z"/></g></g></svg>