<svg id="Слой_1" xmlns="http://www.w3.org/2000/svg" viewBox="0 0 38.4 39.6"><style>.st0{fill:#f4bd00}</style><title>service icon 4</title><g id="Слой_2"><g id="Слой_3"><path class="st0" d="M16.3 39.6L8.2 25.9l-8 13.7h16.1zm15.4-25L17 39.6l-14.6-25L17 0l14.7 14.6z"/><path d="M9.1 23.1c-3.2-3.7-2.7-9.2.9-12.4 1.7-1.5 3.9-2.2 6.1-2.2 2.5 0 4.8 1.2 6.4 3.1 3.2 3.7 2.8 9.3-1 12.5s-9.2 2.7-12.4-1zm9.8-4.7c-1.1.9-1.2 2.5-.3 3.6.9 1.1 2.5 1.2 3.6.3 1.1-.9 1.2-2.5.3-3.6v-.1c-1-.9-2.5-1.1-3.6-.2zm-3.3-7.7c-.1-.2-.3-.3-.5-.4l-.6-.3c-.1 0-.3-.1-.4-.1h-.8c-.3 0-.5.1-.8.2-.2.1-.3.2-.5.3-.2.2-.4.4-.5.6-.2.2-.3.5-.4.7-.1.4-.1.8-.1 1.2 0 .2.1.4.2.6.1.3.3.5.5.7.2.2.4.4.7.5.2.1.4.1.6.2.4.1.7.1 1.1 0 .3-.1.5-.2.8-.3.2-.1.3-.2.5-.4.3-.3.5-.6.6-1 .1-.3.1-.6.1-.9V12c0-.2-.1-.4-.2-.6.1-.3-.1-.5-.3-.7zm6.1 5.1c1.1-.9 1.2-2.5.3-3.6-.9-1.1-2.5-1.2-3.6-.3-1.1.9-1.2 2.5-.3 3.6 1 1.1 2.6 1.2 3.6.3zm-9.1 8.6c.2.2.4.4.6.5.2.1.3.2.5.3.1 0 .3.1.4.1.4.1.8 0 1.2-.1.2-.1.4-.1.5-.2.1-.1.3-.2.4-.3.1-.1.2-.2.3-.4.1-.1.1-.2.2-.3.1-.2.1-.3.2-.5s.1-.4.1-.7v-.4c0-.2-.1-.4-.1-.6 0-.1-.1-.2-.2-.4s-.3-.4-.4-.6c-.2-.2-.4-.4-.7-.5l-.5-.1c-.3-.1-.5-.1-.8-.1-.3 0-.6.1-.9.2h-.1c-.2.1-.4.2-.5.3-.2.2-.4.4-.5.6-.2.3-.3.5-.3.8v.8c0 .2.1.3.1.5l.1.1c0 .1.1.1.1.2.1.6.2.8.3.8zm-.4-8.1c-.9-1.1-2.5-1.2-3.6-.3-1.1.9-1.2 2.5-.3 3.6.9 1.1 2.5 1.2 3.5.3 1.2-.9 1.3-2.5.4-3.6zm4.2.5c-.1-.1-.2-.2-.3-.2-.1-.1-.3-.1-.4-.1-.2 0-.4.1-.6.2-.3.3-.4.8-.2 1.2.1.2.3.3.5.4.2 0 .5 0 .7-.1.2-.1.3-.3.3-.5.3-.4.2-.7 0-.9zm-2.2 1.3c-.2.2-.3.5-.1.8.2.2.5.3.7.1.2-.2.2-.5.1-.7-.1-.4-.4-.4-.7-.2zm.5-1.2c.3-.2.3-.5.2-.7-.2-.3-.5-.3-.7-.2l-.1.1c-.2.2-.2.5-.1.8.2.2.5.2.7 0zm1.4 1.6c-.2.2-.3.5-.1.7.2.2.5.2.7 0 .2-.2.2-.5.1-.8-.1-.1-.5-.1-.7.1zm.5-2.3c.2-.2.2-.5.1-.8-.2-.2-.5-.3-.8-.1-.2.2-.3.5-.1.8.2.2.5.2.8.1zm1.3.7c-.2-.2-.5-.2-.8-.1-.2.2-.2.5-.1.8.2.2.5.2.8 0 .3-.1.3-.5.1-.7zm-4.8 9.7c0-.1.1-.1.1-.1h.1c.2.1.5.1.7.2s.6.1.8.1c.4.1.8.1 1.2 0h.9c.3 0 .6-.1.9-.1l.6-.1h.1l.3-.1h.1c.2-.1.3-.1.5-.2l.6-.3c.1-.1.2-.1.3 0l.2.3 2 2.3.1.1v.2h-.1l-.6.1h-.5c-.3 0-.6.1-.9.1h-1.3c-.4 0-.7-.1-1.1-.1s-.6-.1-.9-.2-.3-.1-.4-.1l-.4-.1-.2-.2-.5-.2h-.1l-.3-.2-.6-.3h-.1l-.6-.4-.2-.1-.6-.5-.1-.1z"/></g></g></svg>