<svg xmlns="http://www.w3.org/2000/svg" viewBox="0 0 37.92 39.6"><defs><style>.cls-1{fill:#f4bd00;fill-rule:evenodd}</style></defs><title>service icon 3</title><g id="Слой_2" data-name="Слой 2"><g id="Слой_3" data-name="Слой 3"><path class="cls-1" d="M29.28 14.63l-14.64 25L0 14.63 14.64 0zm8.64 13.93l-8-13.68-8 13.68z"/><path d="M14.31 32.06l-.06-.06-.59-.6-2.28-2.27-.49-.49a.08.08 0 0 1 0-.1l.81-2v-.1l.06.06 2.51 2.5a.15.15 0 0 1 0 .1v2.85c0 .15.05.05.04.11zm.69 0v-2.89a.2.2 0 0 1 0-.17l2.08-2 .39-.39.08-.08.11.26.74 1.79a.09.09 0 0 1 0 .12l-2.29 2.29L15 32zm-.69-26.9v2.92a.23.23 0 0 1-.07.13l-2.44 2.44-.06.06-.14-.35-.69-1.66a.13.13 0 0 1 0-.17l1.86-1.83 1.48-1.48zm.69.01l.24.25 2.16 2.16 1 1a.12.12 0 0 1 0 .15l-.7 1.69-.14.33h-.05l-2.24-2.31-.27-.26a.19.19 0 0 1 0-.12V5.18zm-4.65 22.94l-.26-.27-1.65-1.65c-.11-.11-.11-.12 0-.23l1.32-1.32c.05-.05.08 0 .13 0l1.28 1.28a.12.12 0 0 1 0 .16L10.39 28zm8.57-.01l-.21-.51-.65-1.59v-.11l1.09-1.09.2-.2h.12l.94.94.45.45v.09L19 28.07zm.01-18.98l.06.05L20.85 11c.07.08.07.08 0 .15l-1.35 1.42h-.1l-1.29-1.29a.1.1 0 0 1 0-.14l.81-2zm-9.12 3.5l-.16-.17-1.26-1.26v-.13l1.9-1.9h.06l.17.4.68 1.64a.08.08 0 0 1 0 .11L9.85 12.6zm-.68 7.91l-.34.14-1.31.54a.1.1 0 0 1-.13 0l-1.26-1.28-.36-.36-.6-.6h2.34a.17.17 0 0 1 .13.03l1.5 1.5zm11-.01l.41-.41L21.69 19a.17.17 0 0 1 .11 0h2.38l-.43.43-.26.24-1.52 1.54a.11.11 0 0 1-.15 0l-1.58-.65zm-7.41 3.58h.05l1.07 1.07.42.44a.22.22 0 0 1 .05.13v2.32L12 25.88v-.1l.68-1.63zm1.59-15.01v2.35a.17.17 0 0 1 0 .11l-1.51 1.51-.13-.3-.67-1.3a.11.11 0 0 1 0-.15l2.2-2.19zM15 28.14v-2.37a.19.19 0 0 1 .07-.15c.07-.06.12-.12.18-.18l.42-.4.86-.87.06-.06.07.17.38.91.17.43a1.31 1.31 0 0 0 .08.16.08.08 0 0 1 0 .12l-.95.95L15 28.1zm-9.9-9.89l.31-.31L7.34 16a.11.11 0 0 1 .15 0l1.51.64h.09L7.6 18.22a.18.18 0 0 1-.11.05H5.12zm15.04-1.57l.35-.15 1.32-.53a.08.08 0 0 1 .11 0l2.23 2.23H21.8a.16.16 0 0 1-.1 0l-1.52-1.52zm-3.58-3.58L15 11.56a.17.17 0 0 1 0-.11V9.12l2.21 2.2a.11.11 0 0 1 0 .14l-.68 1.63zm4.33 5.83l-.35.35-.93.94a.12.12 0 0 1-.15 0l-1.16-.48-.36-.16-.44-.17-.79-.33a4.31 4.31 0 0 1-.4-.18zm-12.49 0H13l-.64.26-.57.24-1.93.8a.1.1 0 0 1-.09 0L8.41 19zm5.91 1.35v4.57L13 23.58a.12.12 0 0 1 0-.16l1.24-3 .06-.14zm.69 0v.07l.82 2 .45 1.08a.12.12 0 0 1 0 .16l-1.19 1.19a.7.7 0 0 0-.07.1v-4.6zm-.69-7.92v4.58-.06l-1-2.43-.21-.45-.1-.26a.08.08 0 0 1 0-.07l1.27-1.27zm.69 4.56v-4.56h.05l1.13 1.13.13.14a.09.09 0 0 1 0 .07l-.11.24-.13.33-1 2.43-.08.19zm1.3 1.35h.06l3.13-1.3a.08.08 0 0 1 .1 0l.92.92c.13.12.25.25.37.39zm-3.3 0H8.4L9.68 17a.1.1 0 0 1 .13 0l1.54.64 1.55.64h.06zm-5.09 3.47l.36-.15L9.58 21h.11l.64.64v.05l-1.17 1.22h-.1l-1.12-1.13zm13.46.01l-.47.46-.69.69h-.1L19 21.77v-.05l.6-.6a.1.1 0 0 1 .12 0l1.6.66zm-9.87-9.86l.15.35.55 1.32a.07.07 0 0 1 0 .09l-.63.63h-.07l-1.19-1.18zm0 13.45l-.07-.06-1-1c-.12-.12-.12-.12 0-.25l1-1s.07-.05.12 0l.6.59a.09.09 0 0 1 0 .12l-.67 1.62zm6.28-.01v-.07l-.66-1.6a.08.08 0 0 1 0-.1l.62-.62h.09L19 24.08v.09l-1.14 1.14zM7.9 15.45l.2-.19 1-1h.1l1.16 1.16-.61.62a.08.08 0 0 1-.1 0l-1.64-.68zm13.45.02l-.45.19-1.2.5a.09.09 0 0 1-.11 0l-.65-.63 1.23-1.22zm-3.57-3.59l1.22 1.2-1.22 1.21-.24-.24-.31-.29c-.09-.09-.1-.13-.05-.25l.56-1.51zM12.47 23l-.47-.51 1.25-1.25zm-2.25-2.22L12 20l-.13.11-1.08 1.08h-.11zM16.81 23l-.73-1.76 1.16 1.15v.12l-.41.41zm.47-3l1.76.73-.44.45h-.09L17.33 20zm-.47-5.79l.45.44v.1l-.76.76-.4.4zm-4.35-.01l.74 1.8h-.05L12 14.81c-.09-.09-.1-.07 0-.17l.39-.39zm6.08 1.72l.5.51-1.73.72zM12 17.16l-1.75-.73.52-.52z"/></g></g></svg>