<svg id="Слой_1" xmlns="http://www.w3.org/2000/svg" viewBox="0 0 38.4 39.6"><style>.st0{fill:#f4bd00}</style><title>service icon 1</title><g id="Слой_2"><g id="Слой_3"><path class="st0" d="M38.2 39.6l-8-13.7-8 13.7h16zM21.4 0L36 14.6l-14.6 25-14.6-25L21.4 0z"/><path d="M17.7 11.4s1.2-5.3 3.5-5.3 3.5 5.3 3.5 5.3h-7zm1.9 10.9s-.1 1.5 1.6 1.5 1.6-1.5 1.6-1.5h-3.2zM17 14.2s-2.2.5-2.6 2c-.5 1.7-.5 4.1.6 5.4.4.7 1 1.2 1.8 1.5.5-.9.9-1.7 1.3-2.7 0 0-.5-1.4-.8-2.4-.3-1.3-.4-2.6-.3-3.8zm8.4 0s2.2.5 2.6 2c.5 1.7.5 4.1-.6 5.4-.4.7-1 1.2-1.8 1.5-.5-.9-.9-1.7-1.3-2.7 0 0 .5-1.4.8-2.4.4-1.3.5-2.6.3-3.8z"/><path d="M21.5 6.4h-.6V4.8h.6v1.6zm0 23h-.6v-4h.6v4zm1.5 0h-.6v-4h.6v4zm-2.9 4.4h-.6v-8.4h.6v8.4zM24.8 12c.4 1.6.4 3.3.1 5-.3 1.6-1.1 4.7-1.1 4.7h-5s-1.2-3.7-1.3-5c-.2-1.6-.1-3.2.3-4.7h7zm-3.6.8c-1 0-1.8.8-1.8 1.8s.8 1.8 1.8 1.8 1.8-.8 1.8-1.8-.8-1.8-1.8-1.8z"/></g></g></svg>