<svg xmlns="http://www.w3.org/2000/svg" viewBox="0 0 38.4 39.6"><defs><style>.cls-1{fill-rule:evenodd}.cls-2{fill:#f4bd00}</style></defs><title>service icon 1 hover</title><g id="Слой_2" data-name="Слой 2"><g id="Слой_3" data-name="Слой 3"><path class="cls-1" d="M38.16 39.6l-8-13.68-8 13.68zm-7.8-31.44L22.32 0H38.4zm-24.12 6L0 7.92h12.48zM21.36 0L36 14.63l-14.64 25-14.64-25z"/><path class="cls-2" d="M17.84 11.44s1.23-5.33 3.54-5.33 3.54 5.33 3.54 5.33zm1.89 10.89s-.15 1.48 1.65 1.48S23 22.33 23 22.33zm-2.58-8.16s-2.16.51-2.56 2c-.47 1.69-.51 4.1.59 5.38A3.78 3.78 0 0 0 16.95 23a18.12 18.12 0 0 0 1.28-2.66s-.48-1.43-.76-2.41a10.62 10.62 0 0 1-.32-3.76zm8.41 0s2.16.51 2.56 2c.47 1.69.51 4.1-.59 5.38A3.77 3.77 0 0 1 25.77 23a18.12 18.12 0 0 1-1.28-2.66s.48-1.43.76-2.41a10.63 10.63 0 0 0 .31-3.76z"/><path class="cls-2" d="M21.65 6.37h-.59V4.8h.59zm0 23.05h-.59v-4h.59zm1.48 0h-.59v-4h.59zm-2.94 4.42h-.59v-8.41h.59zM24.91 12a12.23 12.23 0 0 1 .13 5c-.34 1.65-1.15 4.72-1.15 4.72h-5s-1.16-3.73-1.34-5a12.5 12.5 0 0 1 .29-4.72zm-3.56.78a1.79 1.79 0 1 0 1.8 1.79 1.8 1.8 0 0 0-1.79-1.82z"/></g></g></svg>