<svg xmlns="http://www.w3.org/2000/svg" viewBox="0 0 37.92 39.6"><defs><style>.cls-1{fill-rule:evenodd}.cls-2{fill:#f4bd00}</style></defs><title>service icon 2 hover</title><g id="Слой_2" data-name="Слой 2"><g id="Слой_3" data-name="Слой 3"><path class="cls-1" d="M30.48 6.24L24.24 0h12.48zM23.28 0l14.64 14.63-14.64 25-14.64-25zm-7.2 28.56L8 14.88 0 28.56z"/><path class="cls-2" d="M27.1 24.18h-.46c-.08 0-.09 0-.11.08a4.9 4.9 0 0 1-.33.85v.14l.43.34c.07.06.07.06 0 .14l-.24.39c-.06.09-.08.1-.18.05l-.4-.17h-.15a5.5 5.5 0 0 1-.62.68c-.07.07-.07.07 0 .15l.28.47v.13l-.38.29c-.08.06-.08.05-.14 0l-.37-.38c-.08-.08-.08-.08-.17 0a5.08 5.08 0 0 1-.81.41c-.09 0-.09 0-.08.13l.09.54c0 .08 0 .09-.07.12l-.46.13c-.09 0-.1 0-.14-.07l-.2-.48c0-.1 0-.11-.15-.09a5.34 5.34 0 0 1-.91.09c-.09 0-.09 0-.11.09s-.07.35-.11.52 0 .11-.13.1h-.46c-.08 0-.1 0-.1-.11v-.58s0-.06-.06-.07l-.56-.19-.48-.16h-.12l-.3.47c-.05.08-.06.08-.14 0l-.43-.22c-.07 0-.08-.05-.05-.13l.18-.52v-.14a5.35 5.35 0 0 1-.75-.57c-.06-.05-.06-.05-.13 0l-.45.33c-.07.05-.08.05-.14 0l-.34-.37v-.12l.37-.43c.05-.07.06-.06 0-.14a5.18 5.18 0 0 1-.48-.76c-.06-.12-.06-.12-.19-.08l-.5.13c-.06 0-.08 0-.11-.05l-.17-.42c0-.13 0-.13.08-.2l.44-.24c.08 0 .08 0 .06-.13a5.48 5.48 0 0 1-.17-.92c0-.08 0-.09-.1-.1l-.54-.06c-.1 0-.11 0-.11-.12v-.47c0-.15 0-.09.09-.1l.55-.07c.08 0 .09 0 .1-.1a5.23 5.23 0 0 1 .17-.91c0-.1 0-.1-.06-.15l-.48-.25c-.08 0-.08 0-.05-.13l.17-.45c0-.09 0-.09.14-.06l.54.14c.06 0 .07 0 .11-.06l.28-.48c.07-.11.14-.21.22-.32s.05-.07 0-.13L16.8 19c-.06-.07-.06-.08 0-.15l.33-.36c.06-.06.06-.06.14 0l.46.32h.14l.61-.49.15-.09a.07.07 0 0 0 0-.1l-.19-.53c0-.08 0-.09.05-.13l.42-.21h.15l.3.46c0 .08 0 .08.14 0a5.35 5.35 0 0 1 .9-.26c.08 0 .09 0 .09-.11v-.53c0-.18 0-.11.11-.12h.46c.09 0 .09 0 .11.09l.12.54c0 .09 0 .09.11.09a4.9 4.9 0 0 1 .93.09c.08 0 .08 0 .12-.07l.18-.45v-.09a.07.07 0 0 1 .1 0l.5.14c.06 0 .07 0 .06.1s-.05.37-.08.55 0 .1.07.13a5.59 5.59 0 0 1 .85.42h.13l.38-.41c.06-.07.07-.07.14 0l.39.29c.07.05.07.07 0 .14l-.28.48v.13a5.41 5.41 0 0 1 .64.7c.06.07.06.07.14 0l.5-.24h.12l.28.44v.11l-.39.32-.07.06v.11c0 .05.16.35.23.53s.08.24.12.36 0 .09.12.08h.56c.07 0 .09 0 .1.07s.06.34.1.51 0 .08-.06.09l-.44.15c-.23.07-.18 0-.17.24a5.6 5.6 0 0 1 0 .82c0 .11 0 .12.1.15l.48.14c.1 0 .11 0 .09.14s0 .19 0 .29a1.28 1.28 0 0 1-.07.22.09.09 0 0 1-.06 0h-.11zm-10-1.47a4.31 4.31 0 1 0 4.31-4.26 4.31 4.31 0 0 0-4.33 4.26z"/><path class="cls-2" d="M30 13.07v.27c0 .07 0 .08.06.1a3.38 3.38 0 0 1 .88.4.07.07 0 0 0 .11 0l.36-.35c.13-.13.11-.13.25 0l.33.29c.07.06.07.07 0 .15l-.32.46v.12a3.39 3.39 0 0 1 .51.79c0 .08 0 .08.12.06l.55-.12c.07 0 .09 0 .11.06s.11.36.16.54 0 .08-.06.11l-.43.17h-.09c-.08 0-.08 0-.07.13a3.4 3.4 0 0 1 0 .93c0 .07 0 .08.07.11l.49.19h.06a.07.07 0 0 1 0 .08l-.16.55s0 .06-.1.05l-.54-.1c-.11 0-.11 0-.16.08a3.45 3.45 0 0 1-.5.78c-.05.06 0 .06 0 .13l.34.46v.12l-.42.37h-.12l-.43-.37c-.06-.06-.06-.06-.13 0A3.24 3.24 0 0 1 30 20c-.11 0-.11 0-.1.15s0 .34 0 .51 0 .12-.11.13l-.47.07c-.11 0-.12 0-.15-.1l-.13-.52c0-.08 0-.08-.1-.08a4.37 4.37 0 0 1-.72-.08L28.1 20c-.09 0-.09 0-.14.06l-.26.46c-.05.09-.06.09-.16 0l-.44-.2c-.1 0-.1-.06-.07-.16l.18-.51v-.12a3.58 3.58 0 0 1-.72-.62c-.05-.06-.05-.06-.12 0l-.49.27h-.14l-.29-.45v-.12l.44-.35c.07-.06.07-.06 0-.13a3.4 3.4 0 0 1-.26-.83c0-.18 0-.15-.18-.16h-.48c-.09 0-.1 0-.1-.11v-.48c0-.16 0-.13.13-.14h.52c.09 0 .09 0 .1-.09a2.57 2.57 0 0 1 .05-.33c.06-.19.13-.37.2-.56s0-.09 0-.16l-.44-.33c-.06-.05-.07-.06 0-.12l.29-.45c0-.07.05-.07.13 0l.51.26a.07.07 0 0 0 .11 0 3.33 3.33 0 0 1 .73-.64c.06 0 .06 0 0-.11l-.2-.67v-.13l.48-.22h.13l.28.47c0 .08 0 .09.14.06a3.32 3.32 0 0 1 .91-.13c.1 0 .1 0 .12-.1l.11-.48v-.07a.06.06 0 0 1 .08-.05l.57.08a.07.07 0 0 1 .07.09v.31zm-1 1.17a2.48 2.48 0 1 0 2.47 2.51A2.48 2.48 0 0 0 29 14.24z"/><path class="cls-2" d="M26.48 14l-.23-.07-.36-.12h-.12a2.55 2.55 0 0 1-.41.48l-.3.24c-.08.06-.07.06 0 .15l.13.38.06.13v.12l-.37.19-.21.08a.07.07 0 0 1-.11 0l-.26-.5a.08.08 0 0 0-.1 0 2.5 2.5 0 0 1-.82 0h-.21L23 15l-.21.46c-.06.12-.06.12-.18.06h-.06a.9.9 0 0 1-.37-.15h-.1c-.07 0-.07 0-.05-.12l.16-.48v-.08a.07.07 0 0 0 0-.1 2.65 2.65 0 0 1-.73-.73c0-.06 0-.06-.12 0l-.54.19h-.11a3.14 3.14 0 0 1-.24-.57c0-.08 0-.09.06-.13l.47-.24c.1-.05.1 0 .08-.16a2.62 2.62 0 0 1 0-1c0-.07 0-.08-.06-.11l-.5-.24c-.08 0-.08 0-.05-.13a3.09 3.09 0 0 1 .23-.56c0-.08 0-.08.13-.05l.52.17h.14a2.6 2.6 0 0 1 .71-.71c.06 0 .06 0 0-.12l-.19-.55v-.11a3.33 3.33 0 0 1 .6-.25h.1l.21.41.06.12a.08.08 0 0 0 .1 0 2.68 2.68 0 0 1 1 0c.07 0 .07 0 .11-.06l.22-.47v-.07a.06.06 0 0 1 .09 0 3.68 3.68 0 0 1 .61.25.08.08 0 0 1 0 .11l-.18.54v.14a2.66 2.66 0 0 1 .71.7c.05.07.05.07.14 0l.52-.18c.08 0 .09 0 .13.05s.16.38.24.57 0 .09-.05.13l-.49.25c-.09 0-.09 0-.07.14a2.6 2.6 0 0 1 0 1c0 .07 0 .08.05.11l.47.23h.06a.08.08 0 0 1 0 .11l-.16.42a1.24 1.24 0 0 1-.09.18.21.21 0 0 1 .11.03zm-2.9-3.39a1.77 1.77 0 1 0 1.76 1.78 1.76 1.76 0 0 0-1.76-1.77z"/><path class="cls-2" d="M28 11.07v.28c0 .09 0 .1-.09.1a2.64 2.64 0 0 1-.6 0c-.07 0-.09 0-.09-.09v-.55c0-.18 0-.1-.08-.13a1.74 1.74 0 0 1-.74-.44.08.08 0 0 0-.11 0l-.48.28c-.09.05-.09 0-.15 0a2.41 2.41 0 0 1-.29-.51v-.12l.45-.27c.12-.07.1-.05.08-.18a1.73 1.73 0 0 1 0-.81c0-.09 0-.09-.06-.14l-.47-.27c-.08 0-.08-.06 0-.14a3.05 3.05 0 0 1 .31-.53h.11l.37.21.15.09a.06.06 0 0 0 .08 0 2.06 2.06 0 0 1 .26-.22 1.16 1.16 0 0 1 .45-.21c.1 0 .13-.06.11-.16a3.42 3.42 0 0 1 0-.54.08.08 0 0 1 .07-.08 2.38 2.38 0 0 1 .62 0 .08.08 0 0 1 .08.09v.42a.69.69 0 0 1 0 .14c0 .08 0 .1.08.13l.33.13a1.46 1.46 0 0 1 .4.28c.07.07.07.06.15 0l.47-.27h.14a2.61 2.61 0 0 1 .29.5v.15l-.46.28c-.09.05-.09 0-.06.15a1.69 1.69 0 0 1 0 .84c0 .07 0 .08.05.12l.48.28c.08 0 .08.05 0 .14a2.2 2.2 0 0 1-.29.51c-.05.07-.06.07-.13 0l-.5-.28h-.12a1.76 1.76 0 0 1-.73.44c-.09 0-.09 0-.09.12v.26zM27.65 10a1 1 0 1 0-1-1 1 1 0 0 0 1 1zm-6.24 16a3.28 3.28 0 1 1 3.27-3.28A3.29 3.29 0 0 1 21.41 26zM29 18.18a1.45 1.45 0 0 1-1.46-1.44A1.43 1.43 0 0 1 29 15.27a1.45 1.45 0 1 1 0 2.91zm-5.43-5.06a.73.73 0 1 1 .73-.73.74.74 0 0 1-.73.73z"/></g></g></svg>