<svg xmlns="http://www.w3.org/2000/svg" viewBox="0 0 13.28 10.83"><defs><style>.cls-1{fill:#f4bd00;}</style></defs><title>soc icon 2 hover</title><g id="Слой_2" data-name="Слой 2"><g id="Слой_3" data-name="Слой 3"><path class="cls-1" d="M0,9.61A5.49,5.49,0,0,0,4,8.48a2.77,2.77,0,0,1-1.57-.55,2.73,2.73,0,0,1-1-1.36,2.7,2.7,0,0,0,1.21,0A2.75,2.75,0,0,1,.88,5.21a2.66,2.66,0,0,1-.37-1.4,2.69,2.69,0,0,0,1.22.34,2.74,2.74,0,0,1-1.18-2A2.68,2.68,0,0,1,.9.51,7.81,7.81,0,0,0,6.54,3.36,2.74,2.74,0,0,1,7,1.11,2.66,2.66,0,0,1,8.18.2,2.69,2.69,0,0,1,9.79.07a2.71,2.71,0,0,1,1.4.8A5.63,5.63,0,0,0,12.92.21a2.75,2.75,0,0,1-1.17,1.49,4.79,4.79,0,0,0,.78-.15,6.34,6.34,0,0,0,.75-.26,5,5,0,0,1-.61.76,5.52,5.52,0,0,1-.73.64.17.17,0,0,0,0,.07,7,7,0,0,1,0,1,8,8,0,0,1-.51,2.14A7.94,7.94,0,0,1,9.81,8.44a7.31,7.31,0,0,1-3.74,2.18,7.9,7.9,0,0,1-1.22.19,8.24,8.24,0,0,1-1.09,0A7.72,7.72,0,0,1,0,9.64Z"/></g></g></svg>