<svg xmlns="http://www.w3.org/2000/svg" viewBox="0 0 9.03 10.83"><defs><style>.cls-1{fill:#f4bd00;}</style></defs><title>soc icon 3 hover</title><g id="Слой_2" data-name="Слой 2"><g id="Слой_3" data-name="Слой 3"><path class="cls-1" d="M9,7.45v.1c0,.07,0,.14,0,.2A3.31,3.31,0,0,1,8.21,9.7a3.13,3.13,0,0,1-2.47,1.11c-1.88,0-3.75,0-5.63,0,0,0-.08,0-.11,0Q0,5.41,0,0A.34.34,0,0,1,.18,0H4.94A6.3,6.3,0,0,1,6.35.15,2.74,2.74,0,0,1,8.41,2.8,2.14,2.14,0,0,1,7,4.72l-.41.14c.26.11.52.19.76.31A2.64,2.64,0,0,1,8.94,6.9C9,7.08,9,7.27,9,7.45Zm-6.25,1c.65,0,1.28,0,1.92,0a1,1,0,0,0,.6-.24.91.91,0,0,0,.3-1,.94.94,0,0,0-.87-.71,17,17,0,0,0-1.92,0l0,0Zm0-4.27H4.19a.88.88,0,0,0,1-.85v-.1a.82.82,0,0,0-.78-1,12.53,12.53,0,0,0-1.58,0l0,0Z"/></g></g></svg>