<svg xmlns="http://www.w3.org/2000/svg" viewBox="0 0 224.49 224.49"><defs><style>.cls-1{fill:#f4bd00}</style></defs><title>icon hobby 5 hover</title><g id="Слой_2" data-name="Слой 2"><g id="Слой_1-2" data-name="Слой 1"><path class="cls-1" d="M112.53 224.49C50.7 224.52 0 173.88 0 112 0 50.85 50.8 0 112 0c61.94 0 112.27 50.33 112.5 112.49.21 60.95-50.78 111.97-111.97 112zM220 112.41A107.58 107.58 0 0 0 112 4.54C52.75 4.51 4.58 52.8 4.51 112.33 4.44 171.37 52.82 220 111.71 220 171.58 220 220 171.91 220 112.41z"/><path class="cls-1" d="M107.19 45.55l28.82 29c4.24-3.78 8-7.3 9.31-13.53 1.46-7 6-13 11.28-18a10.89 10.89 0 0 1 15.7.66c4 4.36 4.15 11.33-.43 15.27-6.7 5.76-13.84 11-23.43 11.87l-8.05 8.42 27.27 29.45L155.84 120l-61-63zm42.53 20c8.23-4 15.91-6.39 19.32-14.17-3-5.54-6.3-6.69-9.52-3.26a40.38 40.38 0 0 0-9.8 17.46zm-83.93 86.61l-18.63 14.16-1-1.08 16-13.84-31-30.16a99.18 99.18 0 0 1 12.61-12.69l62.65 65.25c-1.31 2-6.67 7.37-11.11 10.25zm44.61-7.51a5.16 5.16 0 0 1-2.75 2.77l-39.41-39.1a4.29 4.29 0 0 1 3-3.06zm-8.4 8.86c.89.46-.32 1.3-2.42 2.77l-38-41.15c-.83-.41.46-1.35 3.13-3zm24.09-24.45a5.57 5.57 0 0 1-2.65 2.58L84 92.22a5 5 0 0 1 2.42-2.57zM91.94 84.17c.34-1.37 1.73-2.06 2.16-2.47l39.83 39.82a5.64 5.64 0 0 1-2.48 2.19zm7.85-7.78a6.58 6.58 0 0 1 2.48-2.6l39.68 39.69c-.26.74-1.7 1.73-2.66 2.43zm18.42 60.42a4.8 4.8 0 0 1-2.1 2.38l-39.7-39.64a4.16 4.16 0 0 1 2.3-2z"/></g></g></svg>