<svg xmlns="http://www.w3.org/2000/svg" viewBox="0 0 224.49 224.49"><defs><style>.cls-1{fill:#f4bd00}</style></defs><title>icon hobby 1 hover</title><g id="Слой_2" data-name="Слой 2"><g id="Слой_1-2" data-name="Слой 1"><path class="cls-1" d="M112.57 224.49C50.74 224.55.05 173.93 0 112-.05 50.89 50.79 0 112 0c61.9 0 112.45 50.5 112.49 112.45.04 61.19-50.69 111.98-111.92 112.04zM220 112.5a107.6 107.6 0 0 0-107.83-108C52.59 4.5 4.44 52.92 4.5 112.75 4.57 171.46 53 219.92 111.62 220 171.51 220 220 172 220 112.5z"/><path class="cls-1" d="M78.21 96.38l-2.48 5.44c13.83 12.36 17.3 28.46 6.49 43.86-8.11 11.55-24.3 15.39-37.13 9.48a30.67 30.67 0 0 1-16.87-34.87 29.91 29.91 0 0 1 15.08-19.56c7.7-4.29 15.81-4.49 24.62-2.5 3.16-6.82 6.27-13.39 9.28-20 7.37-16.27 9.68-18.13 27.52-21.92 2.12.61 3.68 1.85 3.54 4.19a4.42 4.42 0 0 1-3.67 4.19 34 34 0 0 1-3.29 1.15c-12.41 1.79-14.83 12-18.75 21.8h40.76c1.61-1.71 2.32-3.91 3.39-6.57-3.1-1-6.06-.31-8.92-.53s-5.66-.82-5.53-4.33C112.38 72.85 115 72 118 72h24.49c2.9 0 5.57.79 5.57 4.26s-2.71 4.18-5.59 4.24h-5.33c-1.95 1.86-2.52 4.13-3.56 6.68 7.36 1.27 8.76 8.82 13.57 12.75 23.05-4.73 38 1.94 42.91 19.05 4.49 15.7-3.49 31.91-18.42 37.41-17.57 6.47-31.27-1.28-41.56-23.89-6.73 0-13.7-.17-20.65.07-4 .14-6.47-1.44-8.68-4.62-7.26-10.34-14.67-20.55-22.54-31.57zM64 106.76c-11.66-4.39-23.3 3.93-26.58 12.31a22.25 22.25 0 0 0 11.38 28.47c10.4 4.87 23.06.49 28.64-9.91 5-9.29 2.31-21.76-5.67-26.43-4.78 5.94-5.11 14.66-11.38 19.53-5.18-1.4-5.43-4.28-3.81-7.86C59 117.6 61.4 112.34 64 106.76zM139.8 133a21.54 21.54 0 0 0 18.4 16.88c9.49 1 19.1-4.47 22.73-12.94 4-9.28 2-18.8-5.39-25.5-6.61-6-15.62-7.45-22.59-3.41 3.9 7.1 10.07 12.72 13.41 19.6-.13 1.84-.56 3.14-1.63 3.56-7.99 3.11-16.46.1-24.93 1.81zm-20.41-36.09H89l18.35 25.6zm20.71 8.47l-6.4-8.59c-1.89-.28-3.36-.5-5.14.37l-12.34 26.47c5.32.42 9.69.66 14.25-.12a33.93 33.93 0 0 1 9.64-18.13zm-.44 18.32h13.58a62.15 62.15 0 0 0-8.4-11.23c-2.49 3.48-5.19 6.32-5.17 11.23z"/></g></g></svg>