<svg xmlns="http://www.w3.org/2000/svg" viewBox="0 0 224.49 224.49"><defs><style>.cls-1{fill:#fff}</style></defs><title>icon hobby 9</title><g id="Слой_2" data-name="Слой 2"><g id="Слой_1-2" data-name="Слой 1"><path class="cls-1" d="M112.39 224.49C50.5 224.39-.1 173.69 0 111.88.1 50.65 51-.11 112.14 0c62 .11 112.26 50.54 112.35 112.63.09 61.02-50.96 111.95-112.1 111.86zM220 112.38A107.58 107.58 0 0 0 112 4.54C52.73 4.51 4.58 52.79 4.51 112.34 4.44 171.38 52.83 220 111.73 220 171.6 220 220 171.9 220 112.38z"/><path class="cls-1" d="M184.47 148.18H40.06l51.09-88.55 41.12 71.06 21-24.71zm-77.34-47.94l.63-.67-16.55-27.48L75.4 97.62c4.79-1.66 7.06-5.78 11.35-6.45l3.71 5.66 7.34-3.92z"/></g></g></svg>