<svg xmlns="http://www.w3.org/2000/svg" viewBox="0 0 224.49 224.49"><defs><style>.cls-1{fill:#fff}</style></defs><title>icon hobby 7</title><g id="Слой_2" data-name="Слой 2"><g id="Слой_1-2" data-name="Слой 1"><path class="cls-1" d="M112.64 224.49C50.82 224.62.14 174.06 0 112.12-.14 51 50.68.08 111.89 0 174-.08 224.65 50.73 224.49 112.88c-.16 60.95-50.81 111.49-111.85 111.61zm-.25-220A107.73 107.73 0 0 0 4.52 112c-.17 59.15 48 107.84 106.85 108 59.73.16 108.48-47.75 108.59-106.73.11-60.38-47.66-108.65-107.58-108.73z"/><path class="cls-1" d="M104.55 140.67c-7.67-1.95-15.34-3.35-22.89-5.27-15.66-4-22.19-15.06-24.66-29.79-1.6-9.44-.78-18.94-1-28.41-.06-3.15.07-6.28-.71-9.42-1.18-4.78-3.29-8.33-8.85-8.5-1 0-2-.35-2.14-1.63.16-1.71 1.53-1.48 2.63-1.57 18.72-1.55 26.73 5.63 27.61 24.52.47 10 .71 19.94 1.59 29.9 1 11.64 7.55 17.92 18.24 20.84l9.34 2.54c1.89-1.83 1.2-3.77 1.21-5.5q.08-26.74 0-53.47c0-9.33-2-11.8-10.9-14.75-1.89-.62-4.89.16-5.71-3.55H141c-2.25 2.55-4.48 2.56-6.45 3.17-7.3 2.26-10 5.87-10 13.44v55.47c0 1.6-.49 3.33.9 5.09 6.59-1 13.15-2.58 19.14-6 7.77-4.37 8.89-12.08 9.29-19.81.38-7.48 0-15 0-22.48 0-3.16-.07-6.34.11-9.49.92-15.87 14.61-24.37 30-18.46-.82 1.93-2.57 1.84-4.1 1.86-4 .05-5.93 2.22-6.73 6-1 4.81-.64 9.58-.21 14.4 1.15 12.81 1.76 25.58-3.45 37.84a27.49 27.49 0 0 1-17.22 16.15c-8.85 3-18 4.37-27.58 6.21-.25 8.59-1.13 17 0 25.43.54 4.13 3.78 6.49 7.82 7.46a29.92 29.92 0 0 1 7.59 2.41c-17.11 1.62-34.19 1-51.74 1.16 1.12-3.44 3.6-2.58 5.25-3 8.48-1.9 11.25-5.1 11.32-13.74v-17a17.6 17.6 0 0 0-.39-2.05z"/></g></g></svg>