<svg xmlns="http://www.w3.org/2000/svg" viewBox="0 0 224.49 224.49"><defs><style>.cls-1{fill:#f4bd00}</style></defs><title>icon hobby 4 hover</title><g id="Слой_2" data-name="Слой 2"><g id="Слой_1-2" data-name="Слой 1"><path class="cls-1" d="M112.31 224.49C50.4 224.32-.19 173.57 0 111.79.19 50.52 51.09-.2 112.22 0c62 .2 112.43 50.83 112.27 112.7-.16 61.24-51.04 111.95-112.18 111.79zM112 4.54C52.72 4.52 4.57 52.84 4.51 112.38 4.46 171.41 52.87 220 111.77 220c59.65 0 108.15-48 108.19-107.14C220 52.62 172.09 4.55 112 4.54z"/><path class="cls-1" d="M107.74 27.34l.64-6.06c3.54-1.47 6.93-1.06 10.6-.39 1.32 3.24.18 6.66.93 10 .91 1.81 5.76.51 3.94 4.7-.72 1.75-4.52-.11-3.93 3.25.69 1.86 2.88.62 3.89 2.08 1.6 3.51-1.6 3.37-3.73 4.26v60c3.06 1 4.48-.79 5.79-2.44a35.66 35.66 0 0 0 2.56-4.27c2-3.34 3.83-7.23 8.63-5.84 4.64 1.33 6 5.49 6.36 9.79.34 4.07-1 7.87-2.85 11.47-1 2.08-2.17 4.12-3.26 6.18-3.67 6.88-3.3 9.27 2 15.1a128 128 0 0 1 9.54 10.83c11.25 15.49 7.6 33.64-9.08 43.06-17.21 9.72-34.9 10.31-52.07-.23-16.22-10-22.55-35.22-5.83-51.28 6.82-6.55 6.77-7.41 2.81-16C79.12 109.49 76.39 97 80 83.8a12.5 12.5 0 0 1 .39-1.44c1.57-3.89 3.06-8.29 8-8.56 5.25-.28 6.55 4.32 8.11 8.17 1.68 4.16 3.07 8.44 4.91 12.51 1.05 2.33 2.45 4.78 6.23 4.47V49.27c-.68-1.4-5-.19-3.53-3.27.46-2.76 3.5-1.23 3.73-3.18.63-3.23-6.11-1.64-4-4.77 1.2-2.69 4.16-1.3 4-3.89-.1-2.23-2.46-1.19-3.35-2.29-1.68-3.37 1.17-3.73 3.25-4.53zm-2.62 121.12c-3.9-4.73-4.16-6.18-.79-12.8 2.36-4.64 2-8.47-1.38-12.33a42.53 42.53 0 0 1-7.19-10.75c-1.19-2.7-1.43-5.15 1.92-6.24 3.53.91 6.44 3.71 10.76 1.58-14.71-2.56-14.87-16.08-20-26.24a15.66 15.66 0 0 0-1.15 1.83 16 16 0 0 0-.77 2.36c-2.41 10.45-.91 20.5 3.48 30.13 7.66 16.82 5.3 18.4-4.75 28.33-9 8.93-9.54 22.19-1.69 32.18 13.86 17.63 47.46 17.35 60.91-.51 5.5-7.3 4.65-19.72-1.81-25.27 0 .73-.1 1.4-.09 2.05.06 3-.49 5.75-3.74 6.88s-5.3-.8-7.19-3.12a26 26 0 0 0-6-5.17c-6.42-4.23-13.36-4.53-20.52-2.91z"/><path class="cls-1" d="M104.53 176.22c-.45-1.82-.48-2.93.86-4h17.8a2.66 2.66 0 0 1 0 4z"/></g></g></svg>