<svg xmlns="http://www.w3.org/2000/svg" viewBox="0 0 224.49 224.49"><defs><style>.cls-1{fill:#fff}</style></defs><title>icon hobby 3</title><g id="Слой_2" data-name="Слой 2"><g id="Слой_1-2" data-name="Слой 1"><path class="cls-1" d="M112.44 224.49C50.46 224.43-.07 173.84 0 111.93.07 50.59 50.8-.07 112.07 0a112.63 112.63 0 0 1 112.42 112.57c-.05 61.33-50.76 111.98-112.05 111.92zm-.64-4.49c59.1.24 107.94-48 108.15-106.76.21-59.7-47.61-108.39-106.74-108.7C53.67 4.23 4.76 52.27 4.54 111.27 4.31 171.09 52.3 219.71 111.8 220z"/><path class="cls-1" d="M148.26 130.83c-12.43 5.7-18.85 4.38-27.26-5.34a39.08 39.08 0 0 0-12-.18c-9.22 10.62-17.31 10.8-27.34 5.72-2.36 3.24-3.06 7.19-4.2 10.89-3.85 12.46-11.1 18.43-24.71 14.79-3.51-.94-7.23-1.11-10.79-1.9-9.89-2.2-15.45-11.23-12.19-20.83C37 112.89 44.5 91.94 52 71c3.8-10.58 10.83-15.54 22.78-15.21 25.12.7 50.28.48 75.42.08 10.22-.16 16.65 4.51 21.15 12.93 3.15 5.89 4.92 12.34 7.15 18.59q7.89 22.06 15.54 44.21c4.09 11.92-.73 20.71-12.9 23.92l-5.31 1.38c-10.9 2.8-18.67-1.27-22.44-11.76zm-30-17.14c.81-2 1.48-4 2.42-6 3.72-7.58 11.07-11.12 20-9.72 6.49 1 13.33 7.52 13.5 14.82.19 8.46 3.35 15.83 6 23.47 4.75 13.5 6.38 14.29 19.85 9.82 5-1.67 7.34-5 5.65-9.91q-10.72-31.1-22-62c-1.54-4.16-4.47-8.67-9.15-9.21-7.14-.82-14.44-.21-22.3-.21v19.33H87.79V64.53c-4.94 0-9.32.5-13.53-.11-7.41-1.07-11.14 2.58-13.39 8.91q-4.69 13.14-9.36 26.29c-4.16 11.75-8.4 23.47-12.41 35.27-2.15 6.33 0 9.92 6.51 11.24 4.23.86 8.51 1.47 12.77 2.16 3.5.57 6.62-.46 7.84-3.81 3.5-9.6 8.57-18.74 8.79-29.37.16-7.93 6.9-15.73 14.37-17.09 9.39-1.7 17.81 2.69 21.14 11.05.61 1.53 1.18 3.07 1.83 4.77 2.01.46 3.92.76 5.92-.15zM123.71 65h-27.2c.32 3.85-.65 7.29.66 10.61h26.54z"/></g></g></svg>