<svg xmlns="http://www.w3.org/2000/svg" viewBox="0 0 224.49 224.49"><defs><style>.cls-1{fill:#f4bd00}</style></defs><title>icon hobby 2 hover</title><g id="Слой_2" data-name="Слой 2"><g id="Слой_1-2" data-name="Слой 1"><path class="cls-1" d="M112.4 224.49C50.41 224.4-.09 173.81 0 111.89.09 50.55 50.83-.1 112.1 0c62.06.1 112.47 50.6 112.39 112.6-.08 61.34-50.8 111.98-112.09 111.89zM113 4.54C53.7 4.3 4.83 52.28 4.54 111c-.3 59.9 47.54 108.61 107 108.95 59.17.33 108.12-47.76 108.41-106.5C220.25 53.53 172.36 4.78 113 4.54z"/><path class="cls-1" d="M80.18 107.16C61 103.6 54.4 98.31 52.32 85.3c-1.86-11.6 4.22-24.63 14.56-30 11.26-5.86 22.05-7.78 38.9 9.33 10.84-9.63 15.22-9.63 24.5.25 7.27-8.49 16.23-10.86 26.15-5.36 8.5 4.71 12.12 12.48 11.17 22.21-1.1 11.28-8.22 16.87-19.11 19.16v75.25H80.18zm19.22 40.37c1.14-2.59-.2-5.14 1.36-7.14 1.22-.36 2.34-.57 3.27.38 1.1 2.16-.27 4.72 1.39 7.06 1.93 0 4 .5 6.67-.63v-18.44c1.91-.79 3.14-1 4.6.92v18.15c2.67-.09 4.92.85 7.45-1v-13.96c1.7-1 2.89-1.07 4 .08 1.06 4.82-.54 9.89 1 14.78 3.67.13 7.1.84 10.81-.57v-5.53c0-13.49-.07-27 0-40.46.06-7 1.69-8.85 7.56-9.25 7.76-.53 11.45-3.27 12.31-9.15 1.14-7.8-2.07-14.37-8.5-16.91-7.1-2.81-13.78-1.74-19.94 6.49a19 19 0 0 1-7-.27c-1.37-3.71-3.27-7.22-7.75-7.41-5-.21-6.88 3.91-9 7.66h-7.11C97 66.06 91.12 62.74 84.32 61c-11-2.76-20.7 2.63-23 12.55C57.75 88.59 65 98.4 80.75 99.91c6.1.59 7.75 2.35 7.76 8.53v34c0 1.76-.57 3.68 1.06 5.44 3.15-.04 6.43.5 9.83-.35z"/></g></g></svg>