<svg xmlns="http://www.w3.org/2000/svg" viewBox="0 0 224.49 224.49"><defs><style>.cls-1{fill:#fff}</style></defs><title>icon hobby 8</title><g id="Слой_2" data-name="Слой 2"><g id="Слой_1-2" data-name="Слой 1"><path class="cls-1" d="M112.46 224.49C50.6 224.46 0 173.79 0 111.95 0 50.75 50.89-.06 112.06 0c62 .06 112.27 50.43 112.43 112.56.16 60.97-50.87 111.96-112.03 111.93zM4.52 112c-.16 59.14 48 107.81 106.9 107.95 59.52.14 108.34-47.66 108.53-106.28.2-60.46-47.44-109-107.12-109.16A107.71 107.71 0 0 0 4.52 112z"/><path class="cls-1" d="M94.2 89.53c-.32-3.53 1.33-6.1 3.58-8.48C104 74.52 110.15 68 116.17 61.3c2.75-3 5.77-4.66 10-4.45 5.82.28 11.66.19 17.49 0 4.38-.12 7.95 1.07 9.85 5.28 2.05 4.53.62 8.55-2.54 11.91-8.1 8.61-16.36 17.08-24.55 25.62-.8.83-1.56 1.7-3.43 3.74 3.14 2.71 6.38 5.25 9.3 8.1 4.4 4.31 4.31 6.69.07 10.88L102.53 152c-.83.82-1.65 1.64-2.51 2.44-2.36 2.19-5 3-7.49.48s-1.74-5.06.55-7.44q11.08-11.53 22.09-23.12c2.38-2.5 4.68-5.08 7.8-8.48-3.68-3.32-7.11-6.2-10.3-9.34-7-6.87-6.92-10.63.24-17.52 6.71-6.45 13.54-12.77 20.86-19.66-3.38-1.18-6.1-.54-8.6-.6-10 7.41-16.25 19-31.67 26.19-17.06 17.05-37.17 37.21-57.35 57.32-1.44 1.43-2.6 4.21-4.9 2.95l64.42-64.08z"/><path class="cls-1" d="M111.35 155l64.84-64.63-1.13-1.77c-7.35-2.22-17.2 2.68-22-7.31 1.56-2.53 3.83-4.36 6.18-6.33l4.12 3h17.71c3 0 5.82.46 6.5 4s-1.27 5.19-4.49 6c-2.22.53-3.5 2.47-5 4q-30.37 30.33-60.73 60.67c-1.65 1.54-3.1 4.08-6 2.37zm68.42-.67c1.09 7.15-3.4 12.88-10.87 14a33.5 33.5 0 0 1-5 .16H41.54c-1.65-1.36-1.54-2.56-.85-3.87 1.68-1.07 3.56-.65 5.34-.65h85.36c11.31 0 22.63-.09 33.94 0 5.53.06 9.35-1.87 10.59-7.6.41-1.87 1.36-3 3.85-2.04zM103.64 105l5.45 6.51c-.56 1.94-2 2.9-3.14 4.05q-18.32 18.37-36.68 36.7a18.77 18.77 0 0 1-2.92 2.7c-2.14 1.37-4.51 1.61-6.35-.4s-1.64-4.24.23-6.25c.9-1 1.84-1.92 2.78-2.86q18.16-18.17 36.34-36.33c1.27-1.32 2.65-2.55 4.29-4.12zm69.92-52.64a10 10 0 0 1-10.09 10.13 10.06 10.06 0 0 1 .4-20.11 10 10 0 0 1 9.69 9.98z"/></g></g></svg>