<svg xmlns="http://www.w3.org/2000/svg" viewBox="0 0 225.46 224.49"><defs><style>.cls-1{fill:#f4bd00}</style></defs><title>icon hobby 6 hover</title><g id="Слой_2" data-name="Слой 2"><g id="Слой_1-2" data-name="Слой 1"><path class="cls-1" d="M0 112.15C-.15 51 50.77.22 112.42 0c61.83-.22 112.8 50.31 113 112.06.24 61.22-50.55 112.13-112.14 112.43C51.25 224.79.16 174.13 0 112.15zM113 4.53C53.42 4.47 4.64 52.58 4.53 111.51A108 108 0 0 0 112.5 220c59.79 0 108.36-48.12 108.5-107.53S172.67 4.59 113 4.53z"/><path class="cls-1" d="M114.75 76.42c13.32-14.08 30.38-16.39 43.78-6.05 10.36 8 13.23 21.82 7.48 35.2-7.93 18.46-20.28 33.9-33.24 48.92-4.46 5.17-9.23 10.06-13.87 15.07-2.44 2.64-5.16 3.19-7.77.44-18.37-19.35-36.32-39-47.27-63.87C57.31 91.28 61 76.31 72.84 69c13.86-8.59 30-5.94 40.79 6.66a6.8 6.8 0 0 0 1.12.76zm3.59 20.19c-4.79 2.77-6.93 1.89-7.72-2.76-.25-1.47-.3-3-.49-4.47a20.77 20.77 0 0 0-29.72-15.94c-10.87 5.37-14.87 16.83-9.62 28.88 10 23 27.05 40.84 43.67 59.29a27 27 0 0 0 2.48-2.08c9.92-10.78 19.76-21.63 28.14-33.68 6.46-9.29 13.06-18.54 15.43-29.93a20.63 20.63 0 0 0-16.25-24.22c-11.73-2.2-23 5.44-24.78 16.9-.42 2.61-.75 5.25-1.13 8z"/></g></g></svg>