<svg xmlns="http://www.w3.org/2000/svg" viewBox="0 0 67.92 191.92"><defs><style>.cls-1{fill:#fff}</style></defs><title>man icon</title><g id="Слой_2" data-name="Слой 2"><path class="cls-1" d="M64.11 103.69c-5.9.39-7.69-.59-8.5-6.25-.94-6.54-1.21-13.19-1.7-19.79S53 64.19 51.84 57.47v125.85c0 5.33-3.24 8.67-8.12 8.59-4.72-.08-7.65-3.23-7.83-8.43v-66.69c-1.3-1.22-2.4-.85-3.74-.52a27.73 27.73 0 0 0-.28 2.83v63c0 6.35-2.78 9.78-7.91 9.81s-8-3.34-8-9.72V56.88h-.65c-.8 11.25-1.71 22.49-2.32 33.75a66.18 66.18 0 0 1-1 8.38c-.64 3.49-2.92 5-6.37 4.92-3.8-.15-5.62-2.6-5.62-5.83a125.37 125.37 0 0 1 1-13.88C2.24 72.37 3.39 60.5 5 48.69c1.46-10.91 5.75-13.18 13.52-12.82 10.31.48 20.66.36 31 0 8.41-.26 12.17 3.14 13.27 11.88 2 15.59 3.44 31.25 5.07 46.88.31 3.65.05 7.11-3.75 9.06zM19.9 15.7C19.9 6.94 26 0 33.72 0c8.1 0 14.15 7 14.11 16.43 0 8.39-6.14 15.4-13.5 15.5-8.11.12-14.43-6.99-14.43-16.23z" id="Слой_1-2" data-name="Слой 1"/></g></svg>