<svg xmlns="http://www.w3.org/2000/svg" viewBox="0 0 66.26 191.92"><defs><style>.cls-1{fill:#fff}</style></defs><title>women icon</title><g id="Слой_2" data-name="Слой 2"><path class="cls-1" d="M41 191.76h-5.65v-62.57c-1.36-1.71-2.57-1.36-4.17-.75v62.69c-2 1.19-3.77.74-5.87.48-5.27-20.72-6.54-42.13-10.22-63.56H5.36l17.1-80.38c-4.57 4.51-5.2 10.53-6.84 16.06C12.53 74.18 9.9 84.77 7 95.27c-.47 1.69-.89 3.62-2.89 4.41-1.76.6-2.65-.85-4-1.27-.77-6.49 1.93-12 3.21-17.78C6 68.85 9.19 57.2 12.14 45.5c1.78-7.11 4.53-9.42 11.86-9.5q10-.14 20 0c4.73.09 8.17 1.84 9.43 7C57.52 59.85 61.86 76.6 66 93.38a20.41 20.41 0 0 1 .22 4.17c-1.2 1.51-2.32 2.4-3.9 2.2-2.2-.58-2.76-2.18-3.26-4.07-3.62-13.77-7.35-27.51-11-41.27a12.21 12.21 0 0 0-4.25-6.8l17 80.13h-9.68C47.58 149.39 46.24 171 41 191.76zM47.1 16c-.08 8.57-6.51 16-13.85 15.91s-14-7.71-14-16S25.91 0 33.31 0 47.17 7.58 47.1 16z" id="Слой_1-2" data-name="Слой 1"/></g></svg>